Patient4_TMGait_0pt3_02_right_20_GRF.mot
version=1
nRows=45
nColumns=19
inDegrees=no
endheader
time	F1x	F1y	F1z	M1x	M1y	M1z	F2x	F2y	F2z	M2x	M2y	M2z	EC1x	EC1y	EC1z	EC2x	EC2y	EC2z
38.12	6.1394	766.5855	55.0199	-277.9817	-48.3713	724.5323	-3.3629	-3.5255	4.3503	-0.72988	-3.4142	-5.0566	-0.0592	0.0182	-0.0073	-0.0462	0.0165	0.9585
38.1401	3.8966	784.1884	54.9897	-284.0543	-48.5306	738.9905	-2.3719	-1.6334	2.9289	-0.19338	-2.2581	-2.6168	-0.0592	0.0182	-0.0073	-0.0462	0.0165	0.9585
38.1603	1.927	804.6415	55.0953	-291.1638	-48.691	755.6621	-1.5222	-0.0069054	1.7251	0.27043	-1.2789	-0.52639	-0.0592	0.0182	-0.0073	-0.0462	0.0165	0.9585
38.1804	0.39073	826.348	55.3106	-298.729	-48.8053	773.1389	-0.86763	1.2555	0.80681	0.63399	-0.53096	1.0907	-0.0592	0.0182	-0.0073	-0.0462	0.0165	0.9585
38.2006	-0.65686	847.1894	55.5569	-305.9663	-48.8006	789.542	-0.40984	2.1501	0.171	0.89545	-0.011273	2.2363	-0.0592	0.0182	-0.0073	-0.0462	0.0165	0.9585
38.2207	-1.1823	864.6837	55.7242	-311.961	-48.5714	802.6411	-0.12418	2.7185	-0.22408	1.0645	0.31361	2.968	-0.0592	0.0182	-0.0073	-0.0462	0.0165	0.9585
38.2409	-1.129	876.277	55.6974	-315.7821	-47.9944	810.1234	0.023838	3.0079	-0.43435	1.1505	0.49006	3.3524	-0.0592	0.0182	-0.0073	-0.0462	0.0165	0.9585
38.261	-0.45088	879.7371	55.3786	-316.6296	-46.9664	809.9783	0.06941	3.0499	-0.51321	1.1564	0.56287	3.4409	-0.0592	0.0182	-0.0073	-0.0462	0.0165	0.9585
38.2811	0.87227	873.7312	54.6849	-314.0409	-45.4117	801.0268	0.048313	2.8476	-0.50386	1.0762	0.56617	3.2522	-0.0592	0.0182	-0.0073	-0.0462	0.0165	0.9585
38.3013	2.8365	858.2936	53.5544	-308.0559	-43.2849	783.3457	-0.0089993	2.3761	-0.44062	0.89588	0.52377	2.7728	-0.0592	0.0182	-0.0073	-0.0462	0.0165	0.9585
38.3214	5.3979	834.9044	51.9851	-299.2379	-40.606	758.3295	-0.078367	1.5926	-0.34813	0.59698	0.45091	1.97	-0.0592	0.0182	-0.0073	-0.0462	0.0165	0.9585
38.3416	8.4768	806.2397	50.0588	-288.5757	-37.4783	728.4462	-0.13619	0.45856	-0.24088	0.16337	0.35322	0.80684	-0.0592	0.0182	-0.0073	-0.0462	0.0165	0.9585
38.3617	11.9694	775.7172	47.9366	-277.3166	-34.0771	696.8107	-0.15222	-1.0319	-0.12413	-0.40808	0.2248	-0.72514	-0.0592	0.0182	-0.0073	-0.0462	0.0165	0.9585
38.3819	15.7691	746.933	45.8326	-266.7642	-30.6194	666.6624	-0.086959	-2.8143	0.0029372	-1.0931	0.051237	-2.5647	-0.0592	0.0182	-0.0073	-0.0462	0.0165	0.9585
38.402	19.7841	723.1045	43.9743	-258.0785	-27.325	640.8597	0.11097	-4.7015	0.14132	-1.8187	-0.18588	-4.5241	-0.0592	0.0182	-0.0073	-0.0462	0.0165	0.9585
38.4221	23.9376	706.5622	42.5572	-252.0941	-24.3746	621.4439	0.49756	-6.3102	0.28541	-2.4362	-0.49719	-6.2105	-0.0592	0.0182	-0.0073	-0.0462	0.0165	0.9585
38.4423	28.1535	698.3154	41.7166	-249.1614	-21.8956	609.2917	1.1179	-6.9936	0.42209	-2.6961	-0.88039	-6.9615	-0.0592	0.0182	-0.0073	-0.0462	0.0165	0.9585
38.4624	32.3402	697.8489	41.5133	-249.0712	-19.9621	603.9789	1.9931	-5.7916	0.52432	-2.2284	-1.3106	-5.7916	-0.0592	0.0182	-0.0073	-0.0462	0.0165	0.9585
38.4826	36.3363	703.1894	41.9362	-251.0761	-18.6207	603.8714	3.1024	-1.4068	0.54327	-0.53337	-1.7298	-1.363	-0.0592	0.0182	-0.0073	-0.0462	0.0165	0.9585
38.5027	39.8844	711.2366	42.9133	-254.014	-17.9117	606.4258	4.3517	7.7427	0.4044	2.9989	-2.0241	7.9652	-0.0592	0.0182	-0.0073	-0.0462	0.0165	0.9585
38.5229	42.6889	718.363	44.2948	-256.5328	-17.8304	608.6828	5.5334	23.3504	0.008466	9.0215	-2.0075	23.9571	-0.0592	0.0182	-0.0073	-0.0462	0.0165	0.9585
38.543	44.4954	721.0339	45.8389	-257.3294	-18.2847	607.7661	6.2821	46.8695	-0.76145	18.0957	-1.4159	48.1413	-0.0592	0.0182	-0.0073	-0.0462	0.0165	0.9585
38.5631	45.1373	716.2924	47.246	-255.335	-19.1032	601.2668	6.0099	78.9577	-2.0239	30.476	0.10042	81.2337	-0.0592	0.0182	-0.0073	-0.0462	0.0165	0.9585
38.5833	44.5695	702.1018	48.1987	-249.8417	-20.0555	587.511	3.9035	118.8436	-3.8767	45.8636	2.9478	122.4758	-0.0592	0.0182	-0.0073	-0.0462	0.0165	0.9585
38.6034	42.8857	677.6021	48.4126	-240.5911	-20.8846	565.7527	-0.33575	164.0609	-6.3867	63.2968	7.3018	169.3406	-0.0592	0.0182	-0.0073	-0.0462	0.0165	0.9585
38.6236	40.3328	643.3311	47.7166	-227.841	-21.3612	536.3338	-6.0692	210.5196	-9.5886	81.1782	12.9385	217.541	-0.0592	0.0182	-0.0073	-0.0462	0.0165	0.9585
38.6437	37.2955	601.3595	46.1203	-212.3954	-21.3442	500.8165	-12.2473	254.1737	-13.2181	97.9464	19.1587	262.7774	-0.0592	0.0182	-0.0073	-0.0462	0.0165	0.9585
38.6639	34.2032	554.9915	43.8096	-195.4773	-20.8133	461.7824	-18.0559	293.2896	-16.7341	112.9477	25.0871	303.1985	-0.0592	0.0182	-0.0073	-0.0462	0.0165	0.9585
38.684	31.3789	507.8753	41.0375	-178.4075	-19.8378	422.1465	-22.9777	327.8284	-19.6665	126.1864	30.0582	338.7571	-0.0592	0.0182	-0.0073	-0.0462	0.0165	0.9585
38.7041	28.9931	463.206	38.0162	-162.3242	-18.5091	384.5071	-26.6966	358.1231	-21.7306	137.8023	33.6843	369.8186	-0.0592	0.0182	-0.0073	-0.0462	0.0165	0.9585
38.7243	27.1035	423.2455	34.9234	-148.0172	-16.9323	350.7296	-29.1279	384.3065	-22.8813	147.8394	35.9094	396.5822	-0.0592	0.0182	-0.0073	-0.0462	0.0165	0.9585
38.7444	25.7067	389.0286	31.9221	-135.8286	-15.2259	321.6836	-30.4113	406.3387	-23.3001	156.2584	36.9837	419.0917	-0.0592	0.0182	-0.0073	-0.0462	0.0165	0.9585
38.7646	24.7719	360.2939	29.1272	-125.6391	-13.487	297.175	-30.8377	424.3916	-23.3016	163.0959	37.3352	437.5843	-0.0592	0.0182	-0.0073	-0.0462	0.0165	0.9585
38.7847	24.2351	335.7566	26.5747	-116.9739	-11.7702	276.1695	-30.7333	439.2713	-23.1911	168.6388	37.3859	452.8901	-0.0592	0.0182	-0.0073	-0.0462	0.0165	0.9585
38.8049	23.9773	313.6116	24.218	-109.1842	-10.0921	257.2104	-30.3525	452.4814	-23.1597	173.4558	37.4105	466.4902	-0.0592	0.0182	-0.0073	-0.0462	0.0165	0.9585
38.825	23.8051	291.9726	21.9563	-101.5985	-8.4547	238.7863	-29.8718	465.8901	-23.3355	178.2615	37.5875	480.1913	-0.0592	0.0182	-0.0073	-0.0462	0.0165	0.9585
38.8451	23.453	269.2085	19.6755	-93.6415	-6.8724	219.6061	-29.382	481.2462	-23.8677	183.7239	38.0863	495.6529	-0.0592	0.0182	-0.0073	-0.0462	0.0165	0.9585
38.8653	22.6411	244.2745	17.297	-84.9454	-5.3848	198.8506	-28.8788	499.819	-24.901	190.3311	39.0417	514.0452	-0.0592	0.0182	-0.0073	-0.0462	0.0165	0.9585
38.8854	21.1472	216.9209	14.8232	-75.4186	-4.0674	176.324	-28.2931	522.2119	-26.504	198.3293	40.4933	535.8765	-0.0592	0.0182	-0.0073	-0.0462	0.0165	0.9585
38.9056	18.8626	187.6771	12.3454	-65.2406	-3.0224	152.435	-27.5321	548.3193	-28.6298	207.712	42.3624	560.9665	-0.0592	0.0182	-0.0073	-0.0462	0.0165	0.9585
38.9257	15.8406	157.6263	10.0117	-54.7852	-2.3388	128.0141	-26.5154	577.374	-31.1411	218.2301	44.4859	588.5056	-0.0592	0.0182	-0.0073	-0.0462	0.0165	0.9585
38.9459	12.2957	128.0773	7.9707	-44.5065	-2.0498	104.06	-25.2092	608.0158	-33.8701	229.4087	46.69	617.1346	-0.0592	0.0182	-0.0073	-0.0462	0.0165	0.9585
38.966	8.5449	100.2593	6.2943	-34.8329	-2.0985	81.5174	-23.6401	638.534	-36.6367	240.6349	48.8126	645.187	-0.0592	0.0182	-0.0073	-0.0462	0.0165	0.9585
38.9861	4.9315	75.1354	4.9635	-26.099	-2.3483	61.1399	-21.8915	667.2742	-39.2413	251.3114	50.6909	671.0889	-0.0592	0.0182	-0.0073	-0.0462	0.0165	0.9585
39.0063	1.7633	53.3445	3.9	-18.5266	-2.6327	43.4431	-20.111	693.0311	-41.4859	261.0013	52.1851	693.7404	-0.0592	0.0182	-0.0073	-0.0462	0.0165	0.9585
